<?xml version="1.0" encoding="utf-8"?>
<!-- Generator: Adobe Illustrator 19.0.0, SVG Export Plug-In . SVG Version: 6.00 Build 0)  -->
<svg version="1.1" id="Layer_1" xmlns="http://www.w3.org/2000/svg" xmlns:xlink="http://www.w3.org/1999/xlink" x="0px" y="0px"
	 viewBox="-284.8 352.8 300 300" style="enable-background:new -284.8 352.8 300 300;" xml:space="preserve">
<path fill="#FFF" d="M-172.4,439.9c-5,0-9.3-1.6-12.9-4.9c-3.6-3.3-5.4-7.2-5.4-11.7c0-4.5,1.8-8.4,5.4-11.7c3.6-3.3,7.9-4.9,12.9-4.9
	s9.3,1.6,12.9,4.9c3.6,3.3,5.4,7.2,5.4,11.7c0,4.5-1.8,8.4-5.4,11.7C-163.1,438.3-167.4,439.9-172.4,439.9z M-90.9,435.6
	c-1.5-1.4-2.3-3-2.3-4.8c0-1.8,0.8-3.4,2.3-4.8l23-20.9h21l-33.5,30.5c-1.5,1.4-3.3,2-5.3,2S-89.4,436.9-90.9,435.6z M-162.4,569.7
	c-4.3,0-8.6-0.9-12.8-2.6c-4.2-1.7-7.6-3.7-10.3-5.8c2.7-2.1,5.3-4.1,8-5.8c2.7-1.7,5.4-3.6,8.3-5.6l-16.5-28.9
	c-1.3-2.4-2.4-5-3.1-7.7c-0.8-2.7-1.1-5.5-1.1-8.2v-36.4c0-4.4,1.7-8.1,5.1-11.3c3.4-3.1,7.5-4.7,12.4-4.7h30
	c6.8,0,13.3-1.1,19.3-3.2c6-2.1,11.4-5.2,16.3-9.1l10.5,9.5c-6.2,5.2-13.1,9.2-20.9,12s-16.1,4.3-25.1,4.3h-16.5v36.4h22.8
	c2.2,0,4.3,0.4,6.3,1.1c2,0.8,3.7,1.9,5,3.4l12.8,13c10.2-3.9,19.7-7.1,28.5-9.4s16.4-3.5,22.7-3.5c3.7,0,7.3,0.6,10.8,1.8
	c3.5,1.2,5.3,3.7,5.3,7.5c0,6.2-5.3,14.2-15.8,24s-23.8,19.4-40,29h-1.8c-5.7,0-11.1-1.4-16.3-4.1s-9.8-6.3-13.8-10.7
	c-4,4.4-8.6,8-13.8,10.7C-151.3,568.3-156.7,569.7-162.4,569.7z M-155.4,541.2c3.8-2.1,8.8-4.7,14.9-7.7c6.1-3,10.8-5.4,14.1-7
	l-10-10l-29.8,1.1L-155.4,541.2z M-222.4,605.1h-2.5c-2.2,0-4-0.6-5.4-1.9c-1.4-1.3-2.1-2.9-2.1-4.9c0-2,0.7-3.6,2.1-4.9
	c1.4-1.3,3.2-1.9,5.4-1.9h2.5c4.3,0,8.6-0.5,12.8-1.6c4.2-1.1,8.3-3,12.3-5.7c1.3-1.1,3-1.6,5-1.6s3.7,0.5,5,1.6
	c4,2.7,8.1,4.6,12.3,5.7c4.2,1.1,8.4,1.6,12.8,1.6c4.2,0,8.4-0.6,12.6-1.7c4.3-1.1,8.4-3,12.4-5.6c1.5-0.9,3.2-1.4,5.1-1.4
	c1.9,0,3.5,0.5,4.9,1.4c4,2.7,8.1,4.6,12.3,5.7s8.4,1.6,12.8,1.6c4.2,0,8.4-0.6,12.6-1.7c4.3-1.1,8.4-3,12.4-5.6
	c1.3-0.9,3-1.4,5-1.4s3.7,0.5,5,1.4c4,2.6,8.1,4.4,12.4,5.6c4.3,1.1,8.5,1.7,12.6,1.7h2.5c2.2,0,4,0.6,5.4,1.9
	c1.4,1.3,2.1,2.9,2.1,4.9c0,2-0.7,3.6-2.1,4.9s-3.2,1.9-5.4,1.9h-2.5c-4.8,0-9.8-0.6-14.9-1.9s-10.1-3.7-15.1-7.2
	c-5,3.5-10,5.9-15.1,7.2s-10,1.9-14.9,1.9s-9.8-0.6-14.9-1.9s-10.1-3.7-15.1-7.2c-5,3.5-10,5.9-15.1,7.2c-5.1,1.3-10,1.9-14.9,1.9
	c-4.8,0-9.8-0.6-14.9-1.9c-5.1-1.3-10.1-3.7-15.1-7.2c-5,3.5-10,5.9-15.1,7.2C-212.6,604.5-217.6,605.1-222.4,605.1z M15.2,352.8
	h-300v300h300V352.8z"/>
</svg>
